<?xml version="1.0" encoding="UTF-8" standalone="no"?>
<!DOCTYPE svg PUBLIC "-//W3C//DTD SVG 1.1//EN"
 "http://www.w3.org/Graphics/SVG/1.1/DTD/svg11.dtd">
<!-- Generated by graphviz version 2.43.0 (0)
 -->
<!-- Title: vigie_core Pages: 1 -->
<svg width="1311pt" height="693pt"
 viewBox="0.00 0.00 1311.40 693.40" xmlns="http://www.w3.org/2000/svg" xmlns:xlink="http://www.w3.org/1999/xlink">
<g id="graph0" class="graph" transform="scale(1 1) rotate(0) translate(43.2 650.2)">
<title>vigie_core</title>
<polygon fill="#1a1b2e" stroke="transparent" points="-43.2,43.2 -43.2,-650.2 1268.2,-650.2 1268.2,43.2 -43.2,43.2"/>
<text text-anchor="middle" x="612.5" y="-592.6" font-family="monospace" font-size="13.00" fill="#cdd6f4">vigie&#45;core — Module Architecture</text>
<!-- lib -->
<g id="node1" class="node">
<title>lib</title>
<path fill="#3d3572" stroke="#9580ff" stroke-width="2" d="M659.5,-585C659.5,-585 491.5,-585 491.5,-585 485.5,-585 479.5,-579 479.5,-573 479.5,-573 479.5,-551 479.5,-551 479.5,-545 485.5,-539 491.5,-539 491.5,-539 659.5,-539 659.5,-539 665.5,-539 671.5,-545 671.5,-551 671.5,-551 671.5,-573 671.5,-573 671.5,-579 665.5,-585 659.5,-585"/>
<text text-anchor="middle" x="575.5" y="-565.2" font-family="monospace" font-size="11.00" fill="#cba6f7">lib.rs</text>
<text text-anchor="middle" x="575.5" y="-553.2" font-family="monospace" font-size="11.00" fill="#cba6f7">Crate root · public API</text>
</g>
<!-- common_mod -->
<g id="node2" class="node">
<title>common_mod</title>
<path fill="#1e3a2a" stroke="#4a9e4a" stroke-width="1.5" d="M505.5,-457C505.5,-457 405.5,-457 405.5,-457 399.5,-457 393.5,-451 393.5,-445 393.5,-445 393.5,-423 393.5,-423 393.5,-417 399.5,-411 405.5,-411 405.5,-411 505.5,-411 505.5,-411 511.5,-411 517.5,-417 517.5,-423 517.5,-423 517.5,-445 517.5,-445 517.5,-451 511.5,-457 505.5,-457"/>
<text text-anchor="middle" x="455.5" y="-437.2" font-family="monospace" font-size="11.00" fill="#a6e3a1">common/mod.rs</text>
<text text-anchor="middle" x="455.5" y="-425.2" font-family="monospace" font-size="11.00" fill="#a6e3a1">re&#45;exports</text>
</g>
<!-- lib&#45;&gt;common_mod -->
<g id="edge1" class="edge">
<title>lib&#45;&gt;common_mod</title>
<path fill="none" stroke="#4a9e4a" stroke-width="1.4" d="M554.32,-538.76C534.62,-518.07 505.12,-487.1 483.48,-464.38"/>
<polygon fill="#4a9e4a" stroke="#4a9e4a" stroke-width="1.4" points="476.47,-457.01 486.62,-461.15 480.06,-460.5 483.51,-464.12 483.36,-464.26 483.22,-464.39 479.77,-460.77 480.1,-467.36 476.47,-457.01 476.47,-457.01"/>
<text text-anchor="middle" x="546" y="-495.8" font-family="monospace" font-size="9.00" fill="#a6adc8">mod common</text>
</g>
<!-- core_mod -->
<g id="node3" class="node">
<title>core_mod</title>
<path fill="#1e3a2a" stroke="#4a9e4a" stroke-width="1.5" d="M740,-457C740,-457 653,-457 653,-457 647,-457 641,-451 641,-445 641,-445 641,-423 641,-423 641,-417 647,-411 653,-411 653,-411 740,-411 740,-411 746,-411 752,-417 752,-423 752,-423 752,-445 752,-445 752,-451 746,-457 740,-457"/>
<text text-anchor="middle" x="696.5" y="-437.2" font-family="monospace" font-size="11.00" fill="#a6e3a1">core/mod.rs</text>
<text text-anchor="middle" x="696.5" y="-425.2" font-family="monospace" font-size="11.00" fill="#a6e3a1">re&#45;exports</text>
</g>
<!-- lib&#45;&gt;core_mod -->
<g id="edge2" class="edge">
<title>lib&#45;&gt;core_mod</title>
<path fill="none" stroke="#4a9e4a" stroke-width="1.4" d="M596.85,-538.76C616.73,-518.07 646.47,-487.1 668.29,-464.38"/>
<polygon fill="#4a9e4a" stroke="#4a9e4a" stroke-width="1.4" points="675.36,-457.01 671.68,-467.34 672.04,-460.76 668.58,-464.37 668.43,-464.23 668.29,-464.09 671.75,-460.48 665.19,-461.11 675.36,-457.01 675.36,-457.01"/>
<text text-anchor="middle" x="662" y="-495.8" font-family="monospace" font-size="9.00" fill="#a6adc8">mod core</text>
</g>
<!-- member -->
<g id="node4" class="node">
<title>member</title>
<path fill="#1a2d40" stroke="#4a8aaa" stroke-width="1.5" d="M1213,-106C1213,-106 1072,-106 1072,-106 1066,-106 1060,-100 1060,-94 1060,-94 1060,-24 1060,-24 1060,-18 1066,-12 1072,-12 1072,-12 1213,-12 1213,-12 1219,-12 1225,-18 1225,-24 1225,-24 1225,-94 1225,-94 1225,-100 1219,-106 1213,-106"/>
<text text-anchor="middle" x="1142.5" y="-86.2" font-family="monospace" font-size="11.00" fill="#89dceb">member.rs</text>
<text text-anchor="middle" x="1142.5" y="-74.2" font-family="monospace" font-size="11.00" fill="#89dceb">──────────────</text>
<text text-anchor="middle" x="1142.5" y="-62.2" font-family="monospace" font-size="11.00" fill="#89dceb">Member · MemberKind</text>
<text text-anchor="middle" x="1142.5" y="-50.2" font-family="monospace" font-size="11.00" fill="#89dceb">MembershipEntry</text>
<text text-anchor="middle" x="1142.5" y="-38.2" font-family="monospace" font-size="11.00" fill="#89dceb">MembershipEvent</text>
<text text-anchor="middle" x="1142.5" y="-26.2" font-family="monospace" font-size="11.00" fill="#89dceb">MembershipEventKind</text>
</g>
<!-- common_mod&#45;&gt;member -->
<g id="edge3" class="edge">
<title>common_mod&#45;&gt;member</title>
<path fill="none" stroke="#4a9e4a" stroke-width="1.4" d="M517.88,-422.72C648.03,-400.98 939.87,-350.55 980.5,-329 1067.69,-282.76 1099.96,-264.42 1139.5,-174 1147.3,-156.16 1149.55,-135.21 1149.36,-116.17"/>
<polygon fill="#4a9e4a" stroke="#4a9e4a" stroke-width="1.4" points="1149.05,-106.11 1153.86,-115.96 1149.4,-111.1 1149.56,-116.1 1149.36,-116.11 1149.16,-116.11 1149,-111.12 1144.86,-116.25 1149.05,-106.11 1149.05,-106.11"/>
<text text-anchor="middle" x="1147" y="-267.3" font-family="monospace" font-size="9.00" fill="#a6adc8">mod member</text>
</g>
<!-- error -->
<g id="node5" class="node">
<title>error</title>
<path fill="#1a2d40" stroke="#4a8aaa" stroke-width="1.5" d="M663.5,-100C663.5,-100 529.5,-100 529.5,-100 523.5,-100 517.5,-94 517.5,-88 517.5,-88 517.5,-30 517.5,-30 517.5,-24 523.5,-18 529.5,-18 529.5,-18 663.5,-18 663.5,-18 669.5,-18 675.5,-24 675.5,-30 675.5,-30 675.5,-88 675.5,-88 675.5,-94 669.5,-100 663.5,-100"/>
<text text-anchor="middle" x="596.5" y="-80.2" font-family="monospace" font-size="11.00" fill="#89dceb">error.rs</text>
<text text-anchor="middle" x="596.5" y="-68.2" font-family="monospace" font-size="11.00" fill="#89dceb">──────────────</text>
<text text-anchor="middle" x="596.5" y="-56.2" font-family="monospace" font-size="11.00" fill="#89dceb">Error</text>
<text text-anchor="middle" x="596.5" y="-44.2" font-family="monospace" font-size="11.00" fill="#89dceb">(PeriodNotOver</text>
<text text-anchor="middle" x="596.5" y="-32.2" font-family="monospace" font-size="11.00" fill="#89dceb">TimeoutNotReached)</text>
</g>
<!-- common_mod&#45;&gt;error -->
<g id="edge4" class="edge">
<title>common_mod&#45;&gt;error</title>
<path fill="none" stroke="#4a9e4a" stroke-width="1.4" d="M452.58,-410.78C447.18,-361.34 439.96,-239.86 485.5,-154 494.97,-136.14 509.37,-120.26 524.69,-106.87"/>
<polygon fill="#4a9e4a" stroke="#4a9e4a" stroke-width="1.4" points="532.77,-100.09 528,-109.97 529.07,-103.46 525.24,-106.67 525.11,-106.52 524.98,-106.37 528.81,-103.15 522.21,-103.07 532.77,-100.09 532.77,-100.09"/>
<text text-anchor="middle" x="487.5" y="-267.3" font-family="monospace" font-size="9.00" fill="#a6adc8">mod error</text>
</g>
<!-- effects -->
<g id="node6" class="node">
<title>effects</title>
<path fill="#1a2d40" stroke="#4a8aaa" stroke-width="1.5" d="M193,-118C193,-118 12,-118 12,-118 6,-118 0,-112 0,-106 0,-106 0,-12 0,-12 0,-6 6,0 12,0 12,0 193,0 193,0 199,0 205,-6 205,-12 205,-12 205,-106 205,-106 205,-112 199,-118 193,-118"/>
<text text-anchor="middle" x="102.5" y="-98.2" font-family="monospace" font-size="11.00" fill="#89dceb">effects.rs</text>
<text text-anchor="middle" x="102.5" y="-86.2" font-family="monospace" font-size="11.00" fill="#89dceb">──────────────</text>
<text text-anchor="middle" x="102.5" y="-74.2" font-family="monospace" font-size="11.00" fill="#89dceb">Effect</text>
<text text-anchor="middle" x="102.5" y="-62.2" font-family="monospace" font-size="11.00" fill="#89dceb">EffectStore (trait)</text>
<text text-anchor="middle" x="102.5" y="-50.2" font-family="monospace" font-size="11.00" fill="#89dceb">(Ping · PingRequest · Ack</text>
<text text-anchor="middle" x="102.5" y="-38.2" font-family="monospace" font-size="11.00" fill="#89dceb">SchedulePeriod</text>
<text text-anchor="middle" x="102.5" y="-26.2" font-family="monospace" font-size="11.00" fill="#89dceb">ScheduleIndirectProbe</text>
<text text-anchor="middle" x="102.5" y="-14.2" font-family="monospace" font-size="11.00" fill="#89dceb">ScheduleSuspicionTimeout)</text>
</g>
<!-- common_mod&#45;&gt;effects -->
<g id="edge5" class="edge">
<title>common_mod&#45;&gt;effects</title>
<path fill="none" stroke="#4a9e4a" stroke-width="1.4" d="M393.18,-412.86C348.87,-396.04 290.23,-368.43 249.5,-329 190.91,-272.29 149.79,-187.1 126.23,-127.84"/>
<polygon fill="#4a9e4a" stroke="#4a9e4a" stroke-width="1.4" points="122.45,-118.19 130.29,-125.87 124.46,-122.78 126.28,-127.43 126.09,-127.51 125.91,-127.58 124.09,-122.92 121.9,-129.14 122.45,-118.19 122.45,-118.19"/>
<text text-anchor="middle" x="278.5" y="-267.3" font-family="monospace" font-size="9.00" fill="#a6adc8">mod effects</text>
</g>
<!-- message -->
<g id="node7" class="node">
<title>message</title>
<path fill="#1a2d40" stroke="#4a8aaa" stroke-width="1.5" d="M455.5,-94C455.5,-94 267.5,-94 267.5,-94 261.5,-94 255.5,-88 255.5,-82 255.5,-82 255.5,-36 255.5,-36 255.5,-30 261.5,-24 267.5,-24 267.5,-24 455.5,-24 455.5,-24 461.5,-24 467.5,-30 467.5,-36 467.5,-36 467.5,-82 467.5,-82 467.5,-88 461.5,-94 455.5,-94"/>
<text text-anchor="middle" x="361.5" y="-74.2" font-family="monospace" font-size="11.00" fill="#89dceb">message.rs</text>
<text text-anchor="middle" x="361.5" y="-62.2" font-family="monospace" font-size="11.00" fill="#89dceb">──────────────</text>
<text text-anchor="middle" x="361.5" y="-50.2" font-family="monospace" font-size="11.00" fill="#89dceb">Message</text>
<text text-anchor="middle" x="361.5" y="-38.2" font-family="monospace" font-size="11.00" fill="#89dceb">(Ping · PingRequest · Ack)</text>
</g>
<!-- common_mod&#45;&gt;message -->
<g id="edge6" class="edge">
<title>common_mod&#45;&gt;message</title>
<path fill="none" stroke="#4a9e4a" stroke-width="1.4" d="M415.27,-410.87C387.15,-392.91 351.82,-364.74 335.5,-329 301.86,-255.32 325.41,-158.68 344.32,-103.56"/>
<polygon fill="#4a9e4a" stroke="#4a9e4a" stroke-width="1.4" points="347.66,-94.09 348.58,-105.02 346.19,-98.87 344.52,-103.59 344.33,-103.52 344.15,-103.46 345.81,-98.74 340.09,-102.02 347.66,-94.09 347.66,-94.09"/>
<text text-anchor="middle" x="364.5" y="-267.3" font-family="monospace" font-size="9.00" fill="#a6adc8">mod message</text>
</g>
<!-- member_store -->
<g id="node8" class="node">
<title>member_store</title>
<path fill="#1a2d40" stroke="#4a8aaa" stroke-width="1.5" d="M919,-112C919,-112 738,-112 738,-112 732,-112 726,-106 726,-100 726,-100 726,-18 726,-18 726,-12 732,-6 738,-6 738,-6 919,-6 919,-6 925,-6 931,-12 931,-18 931,-18 931,-100 931,-100 931,-106 925,-112 919,-112"/>
<text text-anchor="middle" x="828.5" y="-92.2" font-family="monospace" font-size="11.00" fill="#89dceb">member_store.rs</text>
<text text-anchor="middle" x="828.5" y="-80.2" font-family="monospace" font-size="11.00" fill="#89dceb">──────────────</text>
<text text-anchor="middle" x="828.5" y="-68.2" font-family="monospace" font-size="11.00" fill="#89dceb">MemberStore (trait)</text>
<text text-anchor="middle" x="828.5" y="-56.2" font-family="monospace" font-size="11.00" fill="#89dceb">members · next · contains</text>
<text text-anchor="middle" x="828.5" y="-44.2" font-family="monospace" font-size="11.00" fill="#89dceb">get / get_mut · push</text>
<text text-anchor="middle" x="828.5" y="-32.2" font-family="monospace" font-size="11.00" fill="#89dceb">remove · clean · shuffle</text>
<text text-anchor="middle" x="828.5" y="-20.2" font-family="monospace" font-size="11.00" fill="#89dceb">get_randomly · len</text>
</g>
<!-- core_mod&#45;&gt;member_store -->
<g id="edge7" class="edge">
<title>core_mod&#45;&gt;member_store</title>
<path fill="none" stroke="#4a9e4a" stroke-width="1.4" d="M752.26,-414.98C791.35,-399.09 840.71,-371.7 864.5,-329 900.26,-264.8 879.08,-178.97 857.07,-121.7"/>
<polygon fill="#4a9e4a" stroke="#4a9e4a" stroke-width="1.4" points="853.25,-112.06 861.12,-119.7 855.28,-116.64 857.12,-121.28 856.94,-121.36 856.75,-121.43 854.91,-116.78 852.75,-123.01 853.25,-112.06 853.25,-112.06"/>
<text text-anchor="middle" x="926" y="-267.3" font-family="monospace" font-size="9.00" fill="#a6adc8">mod member_store</text>
</g>
<!-- vigie -->
<g id="node9" class="node">
<title>vigie</title>
<path fill="#3d1a00" stroke="#c06000" stroke-width="2" d="M827.5,-329C827.5,-329 565.5,-329 565.5,-329 559.5,-329 553.5,-323 553.5,-317 553.5,-317 553.5,-222 553.5,-222 553.5,-216 559.5,-210 565.5,-210 565.5,-210 827.5,-210 827.5,-210 833.5,-210 839.5,-216 839.5,-222 839.5,-222 839.5,-317 839.5,-317 839.5,-323 833.5,-329 827.5,-329"/>
<text text-anchor="middle" x="696.5" y="-309.2" font-family="monospace" font-size="11.00" fill="#fab387">vigie.rs</text>
<text text-anchor="middle" x="696.5" y="-297.2" font-family="monospace" font-size="11.00" fill="#fab387">──────────────</text>
<text text-anchor="middle" x="696.5" y="-285.2" font-family="monospace" font-size="11.00" fill="#fab387">Vigie&lt;M: MemberStore, E: EffectStore&gt;</text>
<text text-anchor="middle" x="696.5" y="-260.2" font-family="monospace" font-size="11.00" fill="#fab387">new · join · get_members</text>
<text text-anchor="middle" x="696.5" y="-248.2" font-family="monospace" font-size="11.00" fill="#fab387">ingest · start_period</text>
<text text-anchor="middle" x="696.5" y="-236.2" font-family="monospace" font-size="11.00" fill="#fab387">indirect_probe · confirm_suspicion</text>
<text text-anchor="middle" x="696.5" y="-224.2" font-family="monospace" font-size="11.00" fill="#fab387">pop_effect</text>
</g>
<!-- core_mod&#45;&gt;vigie -->
<g id="edge8" class="edge">
<title>core_mod&#45;&gt;vigie</title>
<path fill="none" stroke="#4a9e4a" stroke-width="1.4" d="M696.5,-410.75C696.5,-392.25 696.5,-364.91 696.5,-339.27"/>
<polygon fill="#4a9e4a" stroke="#4a9e4a" stroke-width="1.4" points="696.5,-329.17 701,-339.17 696.7,-334.17 696.7,-339.17 696.5,-339.17 696.3,-339.17 696.3,-334.17 692,-339.17 696.5,-329.17 696.5,-329.17"/>
<text text-anchor="middle" x="720.5" y="-367.8" font-family="monospace" font-size="9.00" fill="#a6adc8">mod vigie</text>
</g>
<!-- effects&#45;&gt;member -->
<g id="edge9" class="edge">
<title>effects&#45;&gt;member</title>
<path fill="none" stroke="#6c7086" stroke-width="1.1" stroke-dasharray="5,2" d="M205.28,-109.36C213.71,-112.57 222.18,-115.5 230.5,-118 340.95,-151.13 372.02,-148.31 487,-157 649.51,-169.28 929.67,-123.53 956.5,-118 987.35,-111.64 1020.33,-102.11 1049.82,-92.56"/>
<polygon fill="#6c7086" stroke="#6c7086" stroke-width="1.1" points="1059.68,-89.33 1051.58,-96.72 1054.95,-90.93 1050.2,-92.49 1050.18,-92.45 1050.17,-92.4 1054.92,-90.84 1048.78,-88.17 1059.68,-89.33 1059.68,-89.33"/>
<text text-anchor="middle" x="526.5" y="-166.8" font-family="monospace" font-size="9.00" fill="#a6adc8">Member</text>
<text text-anchor="middle" x="526.5" y="-156.8" font-family="monospace" font-size="9.00" fill="#a6adc8">MembershipEvent</text>
</g>
<!-- message&#45;&gt;member -->
<g id="edge10" class="edge">
<title>message&#45;&gt;member</title>
<path fill="none" stroke="#6c7086" stroke-width="1.1" stroke-dasharray="5,2" d="M418.64,-94.11C459.43,-117.04 516.52,-144.89 571,-157 738.58,-194.26 936.49,-138.39 1049.96,-96.94"/>
<polygon fill="#6c7086" stroke="#6c7086" stroke-width="1.1" points="1059.67,-93.35 1051.85,-101.04 1054.99,-95.13 1050.3,-96.86 1050.29,-96.82 1050.27,-96.77 1054.96,-95.04 1048.73,-92.6 1059.67,-93.35 1059.67,-93.35"/>
<text text-anchor="middle" x="610.5" y="-166.8" font-family="monospace" font-size="9.00" fill="#a6adc8">Member</text>
<text text-anchor="middle" x="610.5" y="-156.8" font-family="monospace" font-size="9.00" fill="#a6adc8">MembershipEvent</text>
</g>
<!-- member_store&#45;&gt;member -->
<g id="edge11" class="edge">
<title>member_store&#45;&gt;member</title>
<path fill="none" stroke="#6c7086" stroke-width="1.1" stroke-dasharray="5,2" d="M931.32,-59C969.41,-59 1012.35,-59 1049.52,-59"/>
<polygon fill="#6c7086" stroke="#6c7086" stroke-width="1.1" points="1059.84,-59 1049.84,-63.5 1054.84,-59.05 1049.84,-59.05 1049.84,-59 1049.84,-58.95 1054.84,-58.95 1049.84,-54.5 1059.84,-59 1059.84,-59"/>
<text text-anchor="middle" x="995.5" y="-74.8" font-family="monospace" font-size="9.00" fill="#a6adc8">Member</text>
<text text-anchor="middle" x="995.5" y="-64.8" font-family="monospace" font-size="9.00" fill="#a6adc8">MembershipEntry</text>
</g>
<!-- vigie&#45;&gt;member -->
<g id="edge12" class="edge">
<title>vigie&#45;&gt;member</title>
<path fill="none" stroke="#f38ba8" stroke-width="1.3" stroke-dasharray="5,2" d="M821.92,-209.87C894.64,-175.87 984.59,-133.82 1050.69,-102.92"/>
<polygon fill="#f38ba8" stroke="#f38ba8" stroke-width="1.3" points="1059.85,-98.64 1052.7,-106.95 1055.39,-100.89 1050.86,-103.01 1050.8,-102.87 1050.73,-102.73 1055.26,-100.62 1048.89,-98.79 1059.85,-98.64 1059.85,-98.64"/>
<text text-anchor="middle" x="1030" y="-166.8" font-family="monospace" font-size="9.00" fill="#a6adc8">Member · MembershipEntry</text>
<text text-anchor="middle" x="1030" y="-156.8" font-family="monospace" font-size="9.00" fill="#a6adc8">MembershipEvent · MembershipEventKind</text>
</g>
<!-- vigie&#45;&gt;error -->
<g id="edge13" class="edge">
<title>vigie&#45;&gt;error</title>
<path fill="none" stroke="#f38ba8" stroke-width="1.3" stroke-dasharray="5,2" d="M675.44,-209.79C668.4,-191.65 660.13,-171.77 651.5,-154 644.25,-139.07 635.51,-123.33 627.15,-109.08"/>
<polygon fill="#f38ba8" stroke="#f38ba8" stroke-width="1.3" points="622.01,-100.43 630.98,-106.73 624.69,-104.65 627.24,-108.95 627.11,-109.03 626.98,-109.1 624.43,-104.8 623.24,-111.32 622.01,-100.43 622.01,-100.43"/>
<text text-anchor="middle" x="674" y="-161.8" font-family="monospace" font-size="9.00" fill="#a6adc8">Error</text>
</g>
<!-- vigie&#45;&gt;effects -->
<g id="edge14" class="edge">
<title>vigie&#45;&gt;effects</title>
<path fill="none" stroke="#f38ba8" stroke-width="1.3" stroke-dasharray="5,2" d="M553.3,-220.11C540.58,-216.45 527.85,-213.02 515.5,-210 421.81,-187.11 392.31,-206.48 301.5,-174 265.86,-161.25 229.25,-142.26 197.3,-123.4"/>
<polygon fill="#f38ba8" stroke="#f38ba8" stroke-width="1.3" points="188.42,-118.1 199.31,-119.36 192.79,-120.53 197.08,-123.1 197,-123.23 196.93,-123.35 192.63,-120.79 194.7,-127.09 188.42,-118.1 188.42,-118.1"/>
<text text-anchor="middle" x="354.5" y="-161.8" font-family="monospace" font-size="9.00" fill="#a6adc8">Effect · EffectStore</text>
</g>
<!-- vigie&#45;&gt;message -->
<g id="edge15" class="edge">
<title>vigie&#45;&gt;message</title>
<path fill="none" stroke="#f38ba8" stroke-width="1.3" stroke-dasharray="5,2" d="M553.21,-220.43C499.15,-201.49 448.06,-182.3 437.5,-174 413.62,-155.23 394.66,-126.82 381.64,-103.06"/>
<polygon fill="#f38ba8" stroke="#f38ba8" stroke-width="1.3" points="376.95,-94.21 385.61,-100.94 379.43,-98.56 381.77,-102.97 381.64,-103.05 381.5,-103.12 379.16,-98.7 377.66,-105.15 376.95,-94.21 376.95,-94.21"/>
<text text-anchor="middle" x="456" y="-161.8" font-family="monospace" font-size="9.00" fill="#a6adc8">Message</text>
</g>
<!-- vigie&#45;&gt;member_store -->
<g id="edge16" class="edge">
<title>vigie&#45;&gt;member_store</title>
<path fill="none" stroke="#f38ba8" stroke-width="1.3" stroke-dasharray="5,2" d="M733.62,-209.87C751.24,-182.03 772.29,-148.79 790.07,-120.7"/>
<polygon fill="#f38ba8" stroke="#f38ba8" stroke-width="1.3" points="795.48,-112.16 793.93,-123.01 792.93,-116.46 790.26,-120.69 790.13,-120.61 790,-120.53 792.68,-116.3 786.33,-118.2 795.48,-112.16 795.48,-112.16"/>
<text text-anchor="middle" x="794.5" y="-161.8" font-family="monospace" font-size="9.00" fill="#a6adc8">MemberStore</text>
</g>
</g>
</svg>
